<?xml version="1.0" encoding="UTF-8"?>
<svg width="147px" height="19px" viewBox="0 0 147 19" version="1.1" xmlns="http://www.w3.org/2000/svg" xmlns:xlink="http://www.w3.org/1999/xlink">
    <!-- Generator: Sketch 61.2 (89653) - https://sketch.com -->
    <title>CRYPTHOW</title>
    <desc>Created with Sketch.</desc>
    <g id="Page-1" stroke="none" stroke-width="1" fill="none" fill-rule="evenodd">
        <g id="Artboard" transform="translate(-126.000000, -214.000000)" fill-rule="nonzero">
            <g id="CRYPTHOW" transform="translate(126.420454, 214.306835)">
                <path d="M8.42044652,17.9318011 C13.534078,17.9318011 16.1249846,14.3863499 16.3636208,11.4204437 L11.5568072,11.3863528 C11.318171,12.8778286 10.2613539,13.806805 8.52271914,13.806805 C6.21306226,13.806805 4.87499535,12.1704429 4.87499535,8.96590054 C4.87499535,5.93181252 6.17044866,4.12499607 8.55681002,4.12499607 C10.3806719,4.12499607 11.4204437,5.19885868 11.5568072,6.78408444 L16.3636208,6.78408444 C15.9886211,2.45454311 12.8181696,0 8.42044652,0 C3.71590555,0 2.84217094e-14,3.13636065 2.84217094e-14,8.96590054 C2.84217094e-14,14.7698723 3.61363292,17.9318011 8.42044652,17.9318011 Z M23.2499954,17.6931649 L23.2499954,11.9318068 L24.8863575,11.9318068 L27.9545364,17.6931649 L33.1022587,17.6931649 L29.5568076,11.1818075 C31.4147604,10.286922 32.5227138,8.5909009 32.5227138,6.17044866 C32.5227138,2.45454311 29.9232845,0.238636136 26.0454473,0.238636136 L18.5113636,0.238636136 L18.5113636,17.6931649 L23.2499954,17.6931649 Z M24.9204484,8.24999213 L23.2499954,8.24999213 L23.2499954,4.02272344 L24.9204484,4.02272344 C26.5823786,4.02272344 27.5795367,4.67045009 27.5795367,6.17044866 C27.5795367,7.66192451 26.5823786,8.24999213 24.9204484,8.24999213 Z M44.9318082,17.6931649 L44.9318082,12.2045338 L51.340893,0.238636136 L46.0568071,0.238636136 L42.6477195,7.32953846 L42.511356,7.32953846 L39.1022683,0.238636136 L33.8181824,0.238636136 L40.2272672,12.2045338 L40.2272672,17.6931649 L44.9318082,17.6931649 Z M57.6136318,17.6931649 L57.6136318,12.5113517 L60.2386293,12.5113517 C64.2187391,12.5113517 66.8863502,10.1676039 66.8863502,6.4090848 C66.8863502,2.69317925 64.2869209,0.238636136 60.4090837,0.238636136 L52.8749999,0.238636136 L52.8749999,17.6931649 L57.6136318,17.6931649 Z M59.2840847,8.82953703 L57.6136318,8.82953703 L57.6136318,4.02272344 L59.2840847,4.02272344 C60.946015,4.02272344 61.9431731,4.90908623 61.9431731,6.4090848 C61.9431731,7.90056065 60.946015,8.82953703 59.2840847,8.82953703 Z M78.0681727,17.6931649 L78.0681727,4.05681431 L83.3181677,4.05681431 L83.3181677,0.238636136 L68.1477277,0.238636136 L68.1477277,4.05681431 L73.3977227,4.05681431 L73.3977227,17.6931649 L78.0681727,17.6931649 Z" id="CRYPT" fill="#F6B141"></path>
                <path d="M89.8295409,17.6931649 L89.8295409,10.8749896 L96.1022622,10.8749896 L96.1022622,17.6931649 L100.840894,17.6931649 L100.840894,0.238636136 L96.1022622,0.238636136 L96.1022622,7.05681145 L89.8295409,7.05681145 L89.8295409,0.238636136 L85.090909,0.238636136 L85.090909,17.6931649 L89.8295409,17.6931649 Z M111.511356,17.9318011 C116.249987,17.9318011 119.999984,14.7954404 119.999984,8.96590054 C119.999984,3.13636065 116.249987,0 111.511356,0 C106.738633,0 103.022727,3.13636065 103.022727,8.96590054 C103.022727,14.7613496 106.738633,17.9318011 111.511356,17.9318011 Z M111.511356,13.806805 C109.159085,13.806805 107.897723,12.1022612 107.897723,8.96590054 C107.897723,5.8295399 109.159085,4.12499607 111.511356,4.12499607 C113.863626,4.12499607 115.124988,5.8295399 115.124988,8.96590054 C115.124988,12.1022612 113.863626,13.806805 111.511356,13.806805 Z M130.05681,17.6931649 L133.022716,7.94317424 L133.159079,7.94317424 L136.124986,17.6931649 L140.659072,17.6931649 L145.806795,0.238636136 L140.522709,0.238636136 L138.136347,11.0113531 L137.999984,11.0113531 L135.170441,0.238636136 L131.011354,0.238636136 L128.181811,10.9772623 L128.045448,10.9772623 L125.659086,0.238636136 L120.375001,0.238636136 L125.522723,17.6931649 L130.05681,17.6931649 Z" id="HOW" fill="#000000"></path>
            </g>
        </g>
    </g>
</svg>